<svg xmlns="http://www.w3.org/2000/svg" xmlns:xlink="http://www.w3.org/1999/xlink" xmlns:inkscape="http://www.inkscape.org/namespaces/inkscape" version="1.1" width="734" height="734" viewBox="0 0 734 734">
<defs>
<clipPath id="clip_1">
<path transform="matrix(1,0,0,-1,-481,1193.66)" d="M481 459.66004H1215V1193.66H481Z" clip-rule="evenodd"/>
</clipPath>
<clipPath id="clip_2">
<path transform="matrix(1,0,0,-1,-481,1193.66)" d="M0 1416.659H1696.449V0H0Z"/>
</clipPath>
</defs>
<g clip-path="url(#clip_1)">
<g inkscape:groupmode="layer" inkscape:label="Layer 2">
</g>
<g inkscape:groupmode="layer" inkscape:label="Layer 1">
<g clip-path="url(#clip_2)">
<path transform="matrix(1,0,0,-1,388.76069,286.7614)" d="M0 0C-7.535 3.19-15.394 5.594-23.531 6.98L24.686-154.173 52.239-62.363 55.29-52.146C50.02-41.329 43.085-31.667 34.764-23.253 24.825-13.406 13.268-5.594 0 0" fill="#5C2E00"/>
<path transform="matrix(1,0,0,-1,186.09333,423.50636)" d="M0 0V-72.8L143.679-71.655 120.288 0Z" fill="#5C2E00"/>
<path transform="matrix(1,0,0,-1,231.16638,342.37477)" d="M0 0C13.129-5.779 27.321-8.598 42.3-8.598H51.499L26.535 67.725C22.791 69.436 19.462 71.793 16.596 74.66 13.268 77.988 10.725 81.871 8.83 86.309 7.027 90.84 6.056 95.555 6.056 100.64 6.056 103.599 6.38 106.419 7.027 109.1 7.396 110.625 8.229 113.446 8.83 114.879 10.725 119.271 13.268 123.154 16.596 126.39 19.878 129.672 23.762 132.307 28.154 134.11 32.499 136.005 37.26 136.976 42.3 136.976H209.139V209.694H42.3C32.822 209.694 21.265 207.845 12.482 205.533 8.229 204.378 4.068 202.852 0 201.096-13.175 195.317-24.732 187.551-34.672 177.611-44.518 167.718-52.377 156.207-58.063 143.032-63.842 129.811-66.662 115.711-66.662 100.64-66.662 85.616-63.842 71.47-58.063 58.202-52.377 44.934-44.518 33.331-34.672 23.484-24.732 13.545-13.175 5.779 0 0" fill="#5C2E00"/>
<path transform="matrix(1,0,0,-1,450.89228,356.15107)" d="M0 0-31.482-104.801-38.849-126.629-43.572-106.779-43.64-106.326-43.779-105.91-64.756-35.738C-64.831-35.78-64.872-35.865-64.952-35.898-64.969-35.906-64.988-35.909-65.006-35.916-65.575-34.065-65.908-32.999-65.924-32.986L-66.529-29.808C-67.492-29.666-68.452-29.501-69.409-29.315-68.453-29.493-67.495-29.666-66.529-29.808L-67.131-27.794-98.699 77.803-110.302 116.728H-191.757L-180.339 78.081-156.531 5.178-132.769-67.355-109.008-140.166-76.37-239.881-74.429-245.799-2.974-245.183 47.107-99.623 118.161 116.728H36.382Z" fill="#5C2E00"/>
<path transform="matrix(1,0,0,-1,-481,1193.66)" d="M549.168 1124.955H1146.39V527.735H549.168ZM530.933 509.5H1164.624V1143.189H530.933Z" fill="#5C2E00"/>
<path transform="matrix(1,0,0,-1,-174.7457,835.5128)" d="M0 0C-4.377 4.377-9.502 7.818-15.375 10.325-21.248 12.832-27.516 14.086-34.173 14.086H-66.383C-68.63 14.086-70.724 14.495-72.669 15.322-74.617 16.144-76.316 17.284-77.776 18.744-79.236 20.201-80.376 21.921-81.199 23.905-82.025 25.889-82.434 28.004-82.434 30.248-82.434 32.492-82.025 34.586-81.199 36.53-80.376 38.479-79.236 40.181-77.776 41.638-76.316 43.098-74.617 44.237-72.669 45.06-70.724 45.883-68.63 46.296-66.383 46.296H7.465V78.506H-66.383C-73.043 78.506-79.29 77.235-85.127 74.692-90.964 72.145-96.071 68.687-100.449 64.31-104.825 59.933-108.284 54.826-110.827 48.989-113.373 43.155-114.645 36.904-114.645 30.248-114.645 23.588-113.373 17.32-110.827 11.447-108.284 5.574-104.825 .449-100.449-3.928-96.071-8.305-90.964-11.767-85.127-14.31-79.29-16.853-73.043-18.124-66.383-18.124H-34.173C-31.929-18.124-29.835-18.538-27.89-19.36-25.942-20.183-24.24-21.323-22.783-22.783-21.323-24.243-20.183-25.945-19.36-27.89-18.538-29.834-18.125-31.929-18.125-34.176-18.125-36.42-18.538-38.514-19.36-40.458-20.183-42.407-21.323-44.105-22.783-45.566-24.24-47.026-25.942-48.166-27.89-48.988-29.835-49.814-31.929-50.224-34.173-50.224H-105.666V-82.434H-34.173C-27.516-82.434-21.248-81.163-15.375-78.62-9.502-76.077-4.377-72.615 0-68.238 4.377-63.861 7.817-58.754 10.328-52.917 12.832-47.079 14.086-40.836 14.086-34.176 14.086-27.516 12.832-21.251 10.328-15.375 7.817-9.502 4.377-4.377 0 0" fill="#5C2E00"/>
<path transform="matrix(1,0,0,-1,-107.796817,749.93356)" d="M0 0H-30.529V-48.038H-45.455V-78.563H-30.529V-114.253C-30.529-121.661-29.126-128.62-26.319-135.13-23.513-141.641-19.663-147.346-14.759-152.243-9.862-157.147-4.153-160.997 2.354-163.804 8.865-166.61 15.824-168.014 23.232-168.014H46.463V-137.488H23.232C20.012-137.488 16.981-136.868 14.139-135.636 11.293-134.4 8.825-132.737 6.731-130.639 4.637-128.545 2.992-126.095 1.795-123.288 .595-120.482 0-117.472 0-114.253V-78.563H46.463V-48.038H0Z" fill="#5C2E00"/>
<path transform="matrix(1,0,0,-1,-14.083099,750.6637)" d="M0 0C-1.873 1.831-4.06 3.291-6.567 4.377-9.075 5.46-11.749 6.005-14.592 6.005-17.437 6.005-20.108 5.46-22.615 4.377-25.123 3.291-27.292 1.831-29.126 0-30.96-1.834-32.42-4.003-33.503-6.51-34.589-9.018-35.131-11.657-35.131-14.424-35.131-17.266-34.589-19.923-33.503-22.391-32.42-24.859-30.96-27.01-29.126-28.844-27.292-30.679-25.123-32.139-22.615-33.222-20.108-34.308-17.437-34.849-14.592-34.849-11.749-34.849-9.075-34.308-6.567-33.222-4.06-32.139-1.873-30.679 0-28.844 1.87-27.01 3.348-24.859 4.43-22.391 5.517-19.923 6.058-17.266 6.058-14.424 6.058-11.657 5.517-9.018 4.43-6.51 3.348-4.003 1.87-1.834 0 0" fill="#5C2E00"/>
<path transform="matrix(1,0,0,-1,-481,1193.66)" d="M436.836 275.713H467.7V395.91304H436.836Z" fill="#5C2E00"/>
<path transform="matrix(1,0,0,-1,-481,1193.66)" d="M618.261 275.713H649.125V395.91304H618.261Z" fill="#5C2E00"/>
<path transform="matrix(1,0,0,-1,167.34119,750.6637)" d="M0 0C-1.873 1.831-4.06 3.291-6.567 4.377-9.075 5.46-11.749 6.005-14.592 6.005-17.437 6.005-20.108 5.46-22.615 4.377-25.123 3.291-27.292 1.831-29.126 0-30.96-1.834-32.42-4.003-33.503-6.51-34.589-9.018-35.131-11.657-35.131-14.424-35.131-17.266-34.589-19.923-33.503-22.391-32.42-24.859-30.96-27.01-29.126-28.844-27.292-30.679-25.123-32.139-22.615-33.222-20.108-34.308-17.437-34.849-14.592-34.849-11.749-34.849-9.075-34.308-6.567-33.222-4.06-32.139-1.873-30.679 0-28.844 1.87-27.01 3.348-24.859 4.43-22.391 5.517-19.923 6.058-17.266 6.058-14.424 6.058-11.657 5.517-9.018 4.43-6.51 3.348-4.003 1.87-1.834 0 0" fill="#5C2E00"/>
<path transform="matrix(1,0,0,-1,59.539979,872.71609)" d="M0 0-26.262 74.969H-61.165L-15.375-45.231H15.379L61.169 74.969H26.152Z" fill="#5C2E00"/>
<path transform="matrix(1,0,0,-1,286.1366,811.1593)" d="M0 0C-4.865 4.901-10.549 8.754-17.06 11.561-23.566 14.367-30.49 15.771-37.823 15.771-44.629 15.771-51.161 14.552-57.408 12.124-63.655 9.691-69.246 6.229-74.186 1.742L-84.286 13.413H-91.694V-106.788H-61.055V-38.101C-61.055-34.959-60.456-31.986-59.256-29.179-58.063-26.373-56.414-23.922-54.32-21.828-52.226-19.734-49.758-18.089-46.912-16.888-44.07-15.692-41.039-15.094-37.823-15.094-34.678-15.094-31.726-15.692-28.955-16.888-26.188-18.089-23.755-19.734-21.661-21.828-19.567-23.922-17.918-26.373-16.721-29.179-15.525-31.986-14.926-34.959-14.926-38.101V-106.788H15.713V-38.101C15.713-30.693 14.31-23.719 11.504-17.17 8.697-10.624 4.865-4.9 0 0" fill="#5C2E00"/>
<path transform="matrix(1,0,0,-1,359.0902,749.93356)" d="M0 0H-30.529V-48.038H-45.455V-78.563H-30.529V-114.253C-30.529-121.661-29.126-128.62-26.319-135.13-23.513-141.641-19.663-147.346-14.759-152.243-9.862-157.147-4.153-160.997 2.354-163.804 8.865-166.61 15.824-168.014 23.232-168.014H46.463V-137.488H23.232C20.012-137.488 16.981-136.868 14.139-135.636 11.294-134.4 8.825-132.737 6.731-130.639 4.637-128.545 2.992-126.095 1.795-123.288 .595-120.482 0-117.472 0-114.253V-78.563H46.463V-48.038H0Z" fill="#5C2E00"/>
<path transform="matrix(1,0,0,-1,450.55653,872.71609)" d="M0 0C-.598 1.047-1.083 2.244-1.457 3.59-1.834 4.936-2.151 6.339-2.411 7.8-2.675 9.256-2.86 10.699-2.974 12.12-3.084 13.541-3.141 14.812-3.141 15.934-3.141 20.948-2.354 25.458-.783 29.46 .787 33.46 2.938 36.883 5.67 39.728 8.402 42.57 11.618 44.761 15.322 46.296 19.026 47.827 22.972 48.596 27.164 48.596 28.659 48.596 30.098 48.518 31.484 48.372 32.865 48.219 34.269 47.884 35.693 47.361ZM67.565 64.363C63.822 67.618 59.801 70.368 55.502 72.612 51.197 74.859 46.652 76.579 41.865 77.776 37.075 78.972 32.175 79.571 27.164 79.571 18.705 79.571 10.756 78.036 3.312 74.969-4.135 71.899-10.642 67.601-16.215 62.063-21.789 56.524-26.188 49.829-29.404 41.972-32.62 34.119-34.229 25.436-34.229 15.934-34.229 6.656-32.62-1.852-29.404-9.598-26.188-17.341-21.789-24.019-16.215-29.632-10.642-35.241-4.135-39.618 3.312-42.763 10.756-45.904 18.705-47.475 27.164-47.475 32.175-47.475 37.057-46.894 41.808-45.737 46.559-44.576 51.086-42.874 55.388-40.63 59.691-38.386 63.694-35.654 67.398-32.438 71.102-29.222 74.375-25.589 77.217-21.551L54.772 1.008C53.572-1.685 52.023-4.135 50.114-6.343 48.205-8.551 46.036-10.421 43.604-11.953 41.171-13.488 38.571-14.667 35.804-15.489 33.036-16.315 30.155-16.725 27.164-16.725 25.963-16.725 24.767-16.668 23.57-16.554 22.373-16.444 21.177-16.201 19.98-15.827L77.441 53.422C74.599 57.461 71.305 61.108 67.565 64.363" fill="#5C2E00"/>
<path transform="matrix(1,0,0,-1,577.7162,801.61819)" d="M0 0C-6.282-2.432-11.895-5.891-16.835-10.382L-26.936 3.871H-34.344V-116.329H-3.704V-50.11C-3.704-46.894-3.106-43.867-1.905-41.021-.712-38.179 .937-35.711 3.031-33.613 5.125-31.519 7.593-29.874 10.439-28.677 13.281-27.48 16.312-26.879 19.528-26.879H46.577V3.647H19.528C12.796 3.647 6.286 2.429 0 0" fill="#5C2E00"/>
<path transform="matrix(1,0,0,-1,668.62686,750.6637)" d="M0 0C-1.873 1.831-4.06 3.291-6.567 4.377-9.075 5.46-11.749 6.005-14.591 6.005-17.437 6.005-20.108 5.46-22.615 4.377-25.123 3.291-27.292 1.831-29.126 0-30.96-1.834-32.42-4.003-33.503-6.51-34.589-9.018-35.13-11.657-35.13-14.424-35.13-17.266-34.589-19.923-33.503-22.391-32.42-24.859-30.96-27.01-29.126-28.844-27.292-30.679-25.123-32.139-22.615-33.222-20.108-34.308-17.437-34.849-14.591-34.849-11.749-34.849-9.075-34.308-6.567-33.222-4.06-32.139-1.873-30.679 0-28.844 1.87-27.01 3.348-24.859 4.431-22.391 5.517-19.923 6.058-17.266 6.058-14.424 6.058-11.657 5.517-9.018 4.431-6.51 3.348-4.003 1.87-1.834 0 0" fill="#5C2E00"/>
<path transform="matrix(1,0,0,-1,-481,1193.66)" d="M1119.547 275.713H1150.411V395.91304H1119.547Z" fill="#5C2E00"/>
<path transform="matrix(1,0,0,-1,775.63919,870.13766)" d="M0 0C-1.61-4.039-3.797-7.483-6.564-10.325-9.331-13.167-12.569-15.375-16.273-16.946-19.976-18.516-23.923-19.303-28.111-19.303-32.303-19.303-36.249-18.459-39.953-16.778-43.657-15.094-46.876-12.793-49.605-9.876-52.336-6.956-54.487-3.515-56.058 .449-57.629 4.416-58.416 8.719-58.416 13.356-58.416 18.295-57.629 22.765-56.058 26.768-54.487 30.771-52.336 34.212-49.605 37.093-46.876 39.974-43.657 42.182-39.953 43.717-36.249 45.249-32.303 46.018-28.111 46.018-23.923 46.018-19.976 45.249-16.273 43.717-12.569 42.182-9.331 39.974-6.564 37.093-3.797 34.212-1.61 30.771 0 26.768 1.61 22.765 2.415 18.295 2.415 13.356 2.415 8.494 1.61 4.042 0 0M15.322 59.541C9.783 65.115 3.294 69.417-4.149 72.448-11.596 75.479-19.581 76.992-28.111 76.992-36.569 76.992-44.519 75.383-51.962 72.167-59.409 68.95-65.916 64.516-71.49 58.868-77.064 53.216-81.462 46.502-84.678 38.72-87.894 30.939-89.504 22.484-89.504 13.356-89.504 4.377-87.894-3.982-84.678-11.728-81.462-19.471-77.064-26.166-71.49-31.815-65.916-37.467-59.409-41.919-51.962-45.17-44.519-48.426-36.569-50.053-28.111-50.053-19.581-50.053-11.596-48.426-4.149-45.17 3.294-41.919 9.783-37.467 15.322-31.815 20.856-26.166 25.233-19.471 28.453-11.728 31.669-3.982 33.279 4.377 33.279 13.356 33.279 22.932 31.669 31.633 28.453 39.451 25.233 47.268 20.856 53.967 15.322 59.541" fill="#5C2E00"/>
<path transform="matrix(1,0,0,-1,860.2068,801.61819)" d="M0 0C-6.282-2.432-11.895-5.891-16.835-10.382L-26.936 3.871H-34.344V-116.329H-3.704V-50.11C-3.704-46.894-3.106-43.867-1.905-41.021-.712-38.179 .937-35.711 3.031-33.613 5.125-31.519 7.593-29.874 10.439-28.677 13.281-27.48 16.312-26.879 19.528-26.879H46.577V3.647H19.528C12.797 3.647 6.286 2.429 0 0" fill="#5C2E00"/>
<path transform="matrix(1,0,0,-1,1020.80886,865.31179)" d="M0 0C-2.019 4.416-4.751 8.195-8.191 11.336-11.635 14.481-15.674 16.928-20.315 18.687-24.952 20.447-29.892 21.326-35.127 21.326H-67.002C-69.097 21.326-70.892 22.092-72.387 23.627-73.887 25.158-74.635 27.01-74.635 29.183-74.635 31.277-73.887 33.072-72.387 34.568-70.892 36.063-69.097 36.815-67.002 36.815H-4.936V67.341H-67.002C-72.316 67.341-77.292 66.347-81.929 64.367-86.569 62.383-90.608 59.669-94.048 56.229-97.492 52.788-100.206 48.746-102.186 44.109-104.17 39.468-105.16 34.493-105.16 29.183-105.16 23.869-104.17 18.894-102.186 14.257-100.206 9.616-97.492 5.556-94.048 2.076-90.608-1.4-86.569-4.149-81.929-6.172-77.292-8.191-72.316-9.203-67.002-9.203H-35.127C-33.033-9.203-31.238-9.538-29.742-10.211-28.246-10.884-27.495-12.309-27.495-14.478-27.495-16.572-28.246-18.367-29.742-19.863-31.238-21.362-33.033-22.11-35.127-22.11H-105.16V-52.635H-35.127C-29.892-52.635-24.952-51.645-20.315-49.662-15.674-47.681-11.635-44.946-8.191-41.467-4.751-37.99-2.019-33.948 0-29.347 2.023-24.745 3.031-19.791 3.031-14.478 3.031-9.239 2.023-4.413 0 0" fill="#5C2E00"/>
</g>
</g>
</g>
</svg>
